<svg xmlns="http://www.w3.org/2000/svg" viewBox="0 0 64 64" width="64" height="64">
  <defs>
    <linearGradient id="bg" x1="0" y1="0" x2="1" y2="1">
      <stop offset="0%" stop-color="#72d4f3"/>
      <stop offset="100%" stop-color="#7edbad"/>
    </linearGradient>
  </defs>
  <rect x="0" y="0" width="64" height="64" rx="14" fill="url(#bg)"/>
  <g fill="none" stroke="#0d1418" stroke-width="3" stroke-linecap="round" stroke-linejoin="round" transform="translate(8 8) scale(2)">
    <path d="m15 12-8.373 8.373a1 1 0 1 1-3-3L12 9"/>
    <path d="m18 15 4-4"/>
    <path d="m21.5 11.5-1.914-1.914A2 2 0 0 1 19 8.172V7l-2.26-2.26a6 6 0 0 0-4.202-1.756L9 2.96l.92.82A6.18 6.18 0 0 1 12 8.4V10l2 2h1.172a2 2 0 0 1 1.414.586L18.5 14.5"/>
  </g>
</svg>
